<svg id="mnemonic" xmlns="http://www.w3.org/2000/svg" xmlns:xlink="http://www.w3.org/1999/xlink" viewBox="0 0 240 234"><defs><radialGradient id="radial-gradient" cx="97.71" cy="81.29" r="143.43" gradientUnits="userSpaceOnUse"><stop offset="0" stop-color="#002922" stop-opacity="0.85"/><stop offset="0.77" stop-color="#002922"/></radialGradient></defs><title>au</title><rect x="10" y="10" width="220" height="214" style="fill:url(#radial-gradient)"/><path d="M0,0V234H240V0ZM10,10H230V224H10Z" transform="translate(0)" style="fill:#4cc0ad;fill-rule:evenodd"/><path d="M67.86,132.5l-7.92,30c-.17.83-.5,1-1.49,1H43.77c-1,0-1.16-.33-1-1.48L71.16,62.59c.49-1.81.82-3.15,1-8.1,0-.66.33-1,.82-1h21c.66,0,1,.17,1.15,1l31.85,107.69c.16.83,0,1.32-.83,1.32H109.6c-.82,0-1.32-.21-1.48-.87L99.87,132.5Zm27.88-16.25c-2.8-11-9.4-35.29-11.88-47H83.7c-2.15,11.71-7.43,31.49-11.55,47Zm98.76,30.49c0,1.15.17,4.62.5,10.23a1,1,0,0,1-.92,1.16c-8.74,3.3-18.25,6.76-30.46,6.76-15,0-29.37-5.77-29.37-28.87V83.32c0-.82.33-1.32,1.16-1.32H151.1c.82,0,1.15.5,1.15,1.32v50.55c0,9.74,3.87,15,14.1,15a27.94,27.94,0,0,0,10.15-1.82V83.32c0-.82.33-1.32,1.16-1.32h15.69c1,0,1.15.5,1.15,1.32Z" transform="translate(0)" style="fill:#4cc0ad;fill-rule:evenodd"/></svg>